<svg xmlns="http://www.w3.org/2000/svg" viewBox="0 0 424.45 424.45"><path d="M316.36,76.32V0H210.25V18.51h87.61V75.87a18.91,18.91,0,0,0,7.68,15.46,18.53,18.53,0,0,0,22.84-.94,27.15,27.15,0,1,1,0,41.31A18.5,18.5,0,0,0,308.61,129c-.3.13-.59.29-.89.45a17.88,17.88,0,0,0-9.23,15.49c-.42,19.85-.63,29.88-.63,31.53H214.93a29.59,29.59,0,1,1-20.47,0H112.8V135.73H94.26V195h65.09A46.22,46.22,0,1,0,251,204.21,47.89,47.89,0,0,0,250,195h66.32V145.78a45.65,45.65,0,1,0,0-69.46Z" style="fill:#2f499f"/><path d="M291.13,205.26l19.6,87.28,18.07-4.06L309.2,201.2ZM99.8,282.21A45.66,45.66,0,1,0,115,350l16.68,74.47,139.65-31.38L267.3,375,145.7,402.33,133,345.93a18.51,18.51,0,0,0-32.87-7.06,27.15,27.15,0,1,1-9-40.3,18.52,18.52,0,0,0,26.64-20.42l-7.26-32.28-18.06,4Z" style="fill:#475569"/></svg>