<svg id="Layer_2" data-name="Layer 2" xmlns="http://www.w3.org/2000/svg" viewBox="0 0 3291.64 471.64"><defs><style>.cls-1{fill:#2f499f;}.cls-2{fill:#475569;}.cls-3{fill:#29a3dc;}</style></defs><path class="cls-1" d="M283.56,82.45V6.13H177.45V24.64h87.61V82a18.93,18.93,0,0,0,7.68,15.46,18.53,18.53,0,0,0,22.84-.94,27.15,27.15,0,1,1,0,41.31,18.5,18.5,0,0,0-19.77-2.73c-.3.13-.59.29-.89.45a17.89,17.89,0,0,0-9.23,15.49c-.42,19.85-.63,29.88-.63,31.53H182.13a29.59,29.59,0,1,1-20.47,0H80V141.86H61.46v59.23h65.09a47,47,0,0,0-.93,9.25,46.28,46.28,0,0,0,92.55,0,47,47,0,0,0-.93-9.25h66.32V151.91a45.65,45.65,0,1,0,0-69.46Z"/><path class="cls-2" d="M258.33,211.39l19.6,87.28L296,294.61l-19.6-87.28ZM67,288.34a45.66,45.66,0,1,0,15.22,67.77L98.9,430.58,238.55,399.2l-4.05-18.05L112.9,408.46l-12.67-56.4A18.51,18.51,0,0,0,67.36,345a27.15,27.15,0,1,1-9-40.3A18.51,18.51,0,0,0,85,284.28L77.74,252l-18.06,4Z"/><path class="cls-2" d="M514.93,7.11c92.36,0,151.38,39.89,151.38,117.5,0,82-55.74,118.6-137.72,118.6-30.61,0-59-1.64-83.62-5.47V383.13c-1.65,1.09-4.37,1.63-9.3,1.63-4.37,0-7.64-.54-9.83-1.63V14.21C457,8.75,483.22,7.11,514.93,7.11Zm-70,212.6c25.68,3.83,47.55,5.47,83.62,5.47,73.23,0,118-27.88,118-99.48,0-70.5-57.38-100.56-136.09-100.56A425.45,425.45,0,0,0,445,30.06Z"/><path class="cls-2" d="M917.69,188c45.91,9.84,83.07,37.71,83.07,92.91,0,73.24-63.94,104.39-145.37,104.39-41,0-76.52-.55-109.86-2.73V14.76c29.52-4.38,53-6,91.27-6,83.07,0,143.74,26.78,143.74,94,0,45.91-28.42,76-62.85,84.17Zm-153-7.65h95.09c60.12,0,101.11-25.69,101.11-74.88,0-55.74-51.91-78.7-127.89-78.7-22.4,0-46.45,0-68.31,3.28Zm0,185.28c26.78,1.63,55.2,1.63,83.62,1.63,83.08,0,132.8-26.77,132.8-84.16,0-55.75-47-85.26-121.87-85.26H764.66Z"/><path class="cls-2" d="M1379.49,194c0,129.53-62.85,202.77-158.5,202.77-100.56,0-159-69.41-159-202.77,0-120.78,63.4-194,159-194C1314.45,0,1379.49,68.32,1379.49,194ZM1221,378.75c89.64,0,138.82-71.59,138.82-184.73,0-108.21-53.56-176.53-138.82-176.53-91.27,0-139.37,69.41-139.37,176.53C1081.62,309.34,1130.81,378.75,1221,378.75Z"/><path class="cls-2" d="M1498.59,24.05V383.13c-1.63,1.09-3.82,1.63-8.73,1.63-4.38,0-6.56-.54-8.75-1.63V14.21c2.19-1.09,7.1-2.18,15.85-2.18s12.57,1.09,15.3,2.18l101.65,267.26c12,31.15,23,62.85,32.26,94.55h1.08c9.3-31.15,21.32-62.85,33.35-94.55L1781.71,14.21c2.73-1.09,6.56-2.18,15.29-2.18s13.12,1.09,15.31,2.18V383.13c-1.64,1.09-3.82,1.63-8.75,1.63-4.37,0-6.56-.54-8.74-1.63V24.05h-1.09c-8.2,26.23-20.22,59.57-30.06,85.81L1658.74,387c-2.19,1.64-6.56,2.19-12.57,2.19-5.48,0-9.3-.55-12-2.19L1530.3,111C1521,86.36,1509,53,1499.69,24.05Z"/><path class="cls-2" d="M1940.16,13.66Q1943.43,12,1950,12c4.93,0,7.65.54,9.3,1.63V366.73h202.76c.55,1.09,1.64,3.28,1.64,8.75s-1.09,7.65-1.64,8.74H1940.16Z"/><path class="cls-3" d="M2348,377.24q-6.27,3.58-19.24,7.6t-30,4a95.36,95.36,0,0,1-34.23-6,74.91,74.91,0,0,1-27.75-18.35q-11.85-12.28-18.78-31.32t-6.94-45a128.73,128.73,0,0,1,6.49-41.83,95.08,95.08,0,0,1,18.79-32.89,85.72,85.72,0,0,1,30.2-21.7q17.9-7.82,40.72-7.83,26.83,0,45.86,3.81t32,7.38V380.37q0,48.31-24.39,69.8t-73.6,21.47a194.09,194.09,0,0,1-36.46-3.13,196.27,196.27,0,0,1-28.86-7.6l6.71-32.66a144.76,144.76,0,0,0,26.62,8.05,161.47,161.47,0,0,0,32.88,3.13q32.22,0,46.09-13T2348,384.4Zm0-155.71a104.46,104.46,0,0,0-14.76-3.35q-9.41-1.56-25.51-1.57-28.64,0-43.62,19.69t-15,52.35q0,17.89,4.25,30.65a59.32,59.32,0,0,0,11.63,21,45,45,0,0,0,16.78,12.08,53.26,53.26,0,0,0,20.14,3.8,83.47,83.47,0,0,0,26.17-4q12.3-4,19.91-9.39Z"/><path class="cls-3" d="M2608.88,390.66q-12.09,3.13-32,6.71T2530.13,401q-23.72,0-39.37-6.94a64.32,64.32,0,0,1-25.5-19.68,76.89,76.89,0,0,1-13.87-30.2,170.9,170.9,0,0,1-4-38.48V188.87h36.69V297.6q0,38.47,11.41,54.58t38.25,16.11q5.8,0,11.86-.45t11.41-1.12c3.58-.45,6.71-.89,9.39-1.34a45.4,45.4,0,0,0,5.37-1.11V188.87h37.14Z"/><path class="cls-3" d="M2724.76,219.74h-60V188.87h96.65V316.39q0,30.87,8.5,41.39t25.5,10.51a86.84,86.84,0,0,0,23.94-3.13,79.23,79.23,0,0,0,17.23-6.71l5.37,31.32q-2.68,1.34-7.61,3.35a102,102,0,0,1-11.41,3.81q-6.49,1.79-14.32,3.13a97,97,0,0,1-16.33,1.34q-19.7,0-32.66-5.37a47.68,47.68,0,0,1-20.81-16.11q-7.83-10.74-11-26.62a193.07,193.07,0,0,1-3.13-36.91Zm9.4-63.08a28.32,28.32,0,0,1-20.14-8q-8.51-8.06-8.5-21.93t8.5-21.92a29.47,29.47,0,0,1,40.5,0q8.27,8.05,8.27,21.92t-8.27,21.93A28.13,28.13,0,0,1,2734.16,156.66Z"/><path class="cls-3" d="M3019.17,92.68l37.13-6.27V390.66q-12.08,3.6-30.87,7.16t-43.85,3.58q-22.38,0-40.72-7.6a87.6,87.6,0,0,1-31.31-21.71,98.32,98.32,0,0,1-20.14-34.22q-7.15-20.14-7.16-45.19a151.58,151.58,0,0,1,6-44.07q6-19.92,17.68-34.23a82.8,82.8,0,0,1,28-22.38q16.32-8,37.36-8.05,16.55,0,29.08,4t18.8,8.5Zm0,140q-6.28-5.81-18.35-11a63.51,63.51,0,0,0-25.06-5.15q-14.76,0-25.27,5.82a48.76,48.76,0,0,0-17.23,15.88,70.82,70.82,0,0,0-9.84,24.16,139,139,0,0,0-3.14,30.21q0,36.22,17,55.92t44.29,19.69a174.61,174.61,0,0,0,23.49-1.34,106,106,0,0,0,14.1-2.68Z"/><path class="cls-3" d="M3204,184q42,0,64.88,26.17t22.81,79.42v13H3143.1q2.24,32.22,21.26,49t53.46,16.78q19.68,0,33.56-3.13t21-6.71l4.92,31.32q-6.7,3.59-24.16,7.6a175.39,175.39,0,0,1-39.37,4q-26.87,0-47.21-8.28t-33.78-22.59a92.51,92.51,0,0,1-20.13-34.23,134.18,134.18,0,0,1-6.72-43.18q0-27.74,8.51-48.32t22.37-34a92.38,92.38,0,0,1,31.31-20.14A99.07,99.07,0,0,1,3204,184Zm50.11,88.59q0-26.39-13.87-41.83t-36.69-15.44a54.9,54.9,0,0,0-23.49,4.92,59.23,59.23,0,0,0-18.12,13,63.15,63.15,0,0,0-12.08,18.34,76.24,76.24,0,0,0-5.81,21Z"/></svg>